# xmcd
#
# Track frame offsets: 
#        150
#        20944
#        41156
#        62072
#        82397
#        98325
#        121706
#        139266
#        158850
#
# Disc length: 2376 seconds
#
# Revision: 0
# Processed by: cddbd v1.5.2PL0 Copyright (c) Steve Scherf et al.
# Submitted via: ExactAudioCopyFreeDBPlugin 1.0
#
DISCID=79094609
DTITLE=AJ Plug - Let Go ... Or Be Dragged
DYEAR=2014
DGENRE=Blues
TTITLE0=Better Off Without You
TTITLE1=Train Of Love
TTITLE2=Crazy For You
TTITLE3=Calling You A King
TTITLE4=Spitting Fire
TTITLE5=Bounce
TTITLE6=More To Lose
TTITLE7=Turning Pebbles
TTITLE8=Shiver
EXTD=
EXTT0=
EXTT1=
EXTT2=
EXTT3=
EXTT4=
EXTT5=
EXTT6=
EXTT7=
EXTT8=
PLAYORDER=
